<svg xmlns="http://www.w3.org/2000/svg" width="1956.035" height="497.426" viewBox="0 0 1956.035 497.426">
  <g id="Group_525" data-name="Group 525" transform="translate(18.018 -734.5)">
    <path id="Path_5" data-name="Path 5" d="M1482,2549.99s32.606-6.651,63.642-6.33c7.828.081,11.538,6.054,19.5,6.33,12.144.421,19.009-2.187,29.854,0,44.085,8.892-3.94,12.153,51.266,21.044,11.188,1.8,25.035-3.375,37.4-3.035,13.04.358,26.365,7.928,38.532,7.97,10.967.038,19.968-3.575,28.631-4.935,14.729-2.313,25.469-3.035,25.469-3.035s16.873,3.061,40.143-1.441-26.086-12.427,52.935-16.569,263.146,0,263.146,0,52.687-15.938,107.389-10.745,36.564,31.517,111.42,31.517,106.957-26.324,188-31.517,70.969,10.745,136.179,10.745,51.247-12.979,124.664-10.745,169,19.679,169,19.679,66.29-8.934,88.387-8.934-13.459,8.934,0,8.934,28.863-11.893,53.838-8.934c8.342.988,6.181,8.709,17.7,13.9s12.571-.49,20.876,1.227-1.087,3.313,12.347,5.643c3.9.676,3.546,7.166,9.126,7.232,4.736.056,2.81,7.074,8.351,5.732,3.507-.849,13.037-3.152,17.477-5.732,5.878-3.416,7.188.582,11.572-1.226s2-6.005,5.965-6.005,5.092,8.965,9.9,6.005-3.794-13.382,9.337-17.843,14.611,6.4,43.186,0,45.633-23.364,71.113-25.6,14.467,10.265,30.806,16.664,34.549,8.934,34.549,8.934v471.564l-1956.035-5.919V2549.99Z" transform="translate(-1475.687 -1798.562)" fill="#f1f5f8"/>
    <g id="orange-juice-juice-svgrepo-com" transform="translate(1679.609 826.087) rotate(21)">
      <g id="Group_5" data-name="Group 5" transform="translate(29.056)">
        <g id="Group_4" data-name="Group 4">
          <path id="Path_6" data-name="Path 6" d="M64.729,16.914a1.96,1.96,0,0,0,1.829-2.069V8.513a1.843,1.843,0,1,0-3.657,0v6.332A1.957,1.957,0,0,0,64.729,16.914Z" transform="translate(-18.695 1.973)" fill="#eae7ee"/>
          <path id="Path_7" data-name="Path 7" d="M76.749,16.914a1.96,1.96,0,0,0,1.829-2.069V8.513a1.843,1.843,0,1,0-3.657,0v6.332A1.957,1.957,0,0,0,76.749,16.914Z" transform="translate(-15.015 1.973)" fill="#eae7ee"/>
          <path id="Path_8" data-name="Path 8" d="M88.773,16.914A1.96,1.96,0,0,0,90.6,14.845V8.513a1.843,1.843,0,1,0-3.657,0v6.332A1.957,1.957,0,0,0,88.773,16.914Z" transform="translate(-11.334 1.973)" fill="#eae7ee"/>
          <path id="Path_9" data-name="Path 9" d="M100.793,16.914a1.96,1.96,0,0,0,1.829-2.069V8.513a1.843,1.843,0,1,0-3.657,0v6.332A1.957,1.957,0,0,0,100.793,16.914Z" transform="translate(-7.654 1.973)" fill="#eae7ee"/>
          <path id="Path_10" data-name="Path 10" d="M60.287,52.871a1.762,1.762,0,0,0-2.377,1.144L47.131,84.287a2.175,2.175,0,0,0,1.008,2.7,1.707,1.707,0,0,0,.684.152,1.844,1.844,0,0,0,1.693-1.3L61.295,55.567A2.17,2.17,0,0,0,60.287,52.871Z" transform="translate(-23.563 16.14)" fill="#eae7ee"/>
          <path id="Path_11" data-name="Path 11" d="M63.981,38.319A1.762,1.762,0,0,0,61.6,39.464c-2.67,7.5-3.192,9.211-3.532,10.308-.152.486-.261.841-.517,1.567a2.177,2.177,0,0,0,1.014,2.7,1.607,1.607,0,0,0,.684.152,1.844,1.844,0,0,0,1.693-1.3c.293-.815.413-1.212.58-1.75.329-1.081.852-2.764,3.469-10.125A2.183,2.183,0,0,0,63.981,38.319Z" transform="translate(-20.372 11.685)" fill="#eae7ee"/>
          <path id="Path_12" data-name="Path 12" d="M59.978,133.044H60a1.878,1.878,0,0,0,1.818-1.928c-.11-10.35,4.984-19.007,14.352-24.378,13.093-7.5,30.992-6.928,43.552,1.411,8.02,5.329,17.262,16.045,15.736,36.818-1.4,19.059-12.241,30.491-30.532,32.194a1.887,1.887,0,0,0-1.667,2.069,1.862,1.862,0,0,0,1.829,1.735c.057,0,.11-.005.167-.005,19.994-1.865,32.345-14.874,33.876-35.7,1.3-17.675-4.89-31.99-17.424-40.318C108.065,95.871,88.6,95.244,74.377,103.4,63.771,109.481,58,119.34,58.129,131.163A1.88,1.88,0,0,0,59.978,133.044Z" transform="translate(-20.156 29.906)" fill="#eae7ee"/>
          <path id="Path_13" data-name="Path 13" d="M84.588,108.521a7.715,7.715,0,0,0-.69,9.969,7.043,7.043,0,0,0,9.561,1.264c1.923-1.411.078-4.713-1.86-3.291a3.426,3.426,0,0,1-4.41-5.24C88.888,109.5,86.286,106.8,84.588,108.521Z" transform="translate(-12.729 33.055)" fill="#eae7ee"/>
          <path id="Path_14" data-name="Path 14" d="M62.178,175.125a33.43,33.43,0,0,0,17.612,4.963c13.025,0,26.123-7.33,33.678-20.308l.961-1.641L83.777,139.294a.018.018,0,0,0-.01-.005l-.1-.063-32.11-19.738-.935,1.656C39.8,140.339,44.979,164.55,62.178,175.125Zm41.6-19.1a36.774,36.774,0,0,1-14.692,9.295l-4.483-21.081ZM85.527,166.29a23.439,23.439,0,0,1-14.514-1.641l10.376-17.816Zm-17.743-3.48c-4.958-3.469-8.318-8.866-9.854-15.292l21.1-4.018Zm-9.342-34.655L69.4,134.89l8.15,5.01L57.2,143.777A40.679,40.679,0,0,1,58.443,128.156ZM52.9,124.749l2.341,1.437c-4.927,16.755-.3,33.322,11.666,40.673a25.755,25.755,0,0,0,13.61,3.772c9.106,0,18.735-4.436,26.483-12.628l2.314,1.421c-10.371,16.013-30.292,21.6-45.266,12.414S44.3,141.844,52.9,124.749Z" transform="translate(-24.185 36.581)" fill="#eae7ee"/>
          <path id="Path_15" data-name="Path 15" d="M263.744,268.523c-1.275-.533-31.567-12.811-62.611-3.38a79.087,79.087,0,0,0-8,2.962,45.616,45.616,0,0,0,3-3.877c11.7-17.837,6.343-38.787,6.1-39.67l-.528-1.991-2.116.643c-.878.266-18.976,5.909-31.363,19.028V126.7a60.184,60.184,0,0,0-6.923-28.051c-2.8-5.287-7.262-17.309-11.588-28.939C141.708,48.155,137.184,36.593,133.8,32.56l-.235-5.465c3.652-.867,6.411-4.545,6.411-8.939V9.138C139.979,4.1,136.358,0,131.918,0H65.367C60.921,0,57.3,4.1,57.3,9.138v9.018c0,4.394,2.753,8.072,6.411,8.939l-.235,5.47c-3.38,4.033-7.9,15.6-15.914,37.152-4.321,11.63-8.788,23.652-11.588,28.939a60.164,60.164,0,0,0-6.917,28.051V282.671c0,12.659,9.749,22.962,21.734,22.962h95.7a18.049,18.049,0,0,0,3.208-.329l.517.214.005.005.617.256a107.517,107.517,0,0,0,37.7,6.933,85.87,85.87,0,0,0,24.921-3.548c31.044-9.42,50.292-36.708,51.1-37.868l1.311-1.886ZM166.583,250.67c8.882-13.542,26.013-20.846,32.095-23.1,1,5.606,2.7,21.327-6.076,34.7a50.357,50.357,0,0,1-13.307,13.171,112.948,112.948,0,0,0-19.3,15.878c3.626-6.829,7.064-15.8,7.152-25.522a45.054,45.054,0,0,0-1.823-12.858C165.747,252.185,166.092,251.412,166.583,250.67ZM62.525,18.155V9.138a3.05,3.05,0,0,1,2.842-3.218h66.551a3.05,3.05,0,0,1,2.842,3.218v9.018a3.05,3.05,0,0,1-2.842,3.218H65.367A3.047,3.047,0,0,1,62.525,18.155ZM50.785,299.708c-9.1,0-16.51-7.644-16.51-17.043V126.7a53.789,53.789,0,0,1,1.541-12.738H145.58a2.085,2.085,0,0,0,0-4.138H37.086a52.849,52.849,0,0,1,3.365-8.129c2.988-5.643,7.325-17.319,11.922-29.681,4.963-13.354,12.461-33.531,15.083-35.6a3.058,3.058,0,0,0,1.181-2.33l.282-6.5H128.37l.282,6.5a3.224,3.224,0,0,0,1.181,2.325c2.628,2.069,10.12,22.246,15.083,35.6,4.592,12.361,8.929,24.038,11.923,29.681a53.715,53.715,0,0,1,6.17,25.01V227.964H47.692a2.085,2.085,0,0,0,0,4.138h99.79c-4.148,5.481-13.532,19.639-13.678,35.8-.125,14.174,6.881,25.809,11.379,31.807h-94.4ZM163,232.107v14.326a62.075,62.075,0,0,0-8.7-14.326Zm-12.92,67.815c-3.563-4.258-12.717-16.708-12.576-31.985.136-15.46,9.775-29.472,13.37-34.158,3.558,4.263,12.711,16.708,12.576,31.985C163.312,281.224,153.673,295.236,150.078,299.922Zm52.12-31.243c22.952-6.97,46.034-1.332,55.558,1.672l-37.669,11.473c-.005,0-.01.005-.016.005L156,301.343C162.424,293.548,179.08,275.7,202.2,268.679Zm-45.961,35.078,19.634-5.982c.094.136.146.3.3.392L194.6,308.741A107.652,107.652,0,0,1,156.238,303.757Zm56.149,1.855a76.9,76.9,0,0,1-13.641,2.769l-20-11.478,19.587-5.966c.021.016.021.047.047.057l21.018,12.058A74.348,74.348,0,0,1,212.387,305.612Zm9.723-3.73L201.4,290l18.845-5.742,16.2,9.295A91.417,91.417,0,0,1,222.11,301.882Zm16.421-9.848c-.01-.005-.01-.021-.021-.026l-15.157-8.7,35.626-10.851A117.04,117.04,0,0,1,238.53,292.033Z" transform="translate(-29.056)" fill="#eae7ee"/>
        </g>
      </g>
    </g>
    <g id="strawberry-drawing-svgrepo-com" transform="translate(186.25 832.738) rotate(40)">
      <path id="Path_16" data-name="Path 16" d="M125.054,26.375a.909.909,0,0,0-.943.559c-8.28-7.385-21.513-8.509-28.333,2.415-.768-9.115-.371-16.219,3.463-24.686a1.292,1.292,0,0,0-.03-1.15,1.087,1.087,0,0,0-.3-1.594c-3.683-2.4-8.922-2.19-13.158-1.3A.871.871,0,0,0,84.828.8c-.045.01-.1.016-.141.026a.842.842,0,0,0-.411,1.244c-3.182,9.628-1.31,21.3,2.976,30.446-11.953-12.105-29.366-3.92-43.091.622a1.552,1.552,0,0,0-.346,2.754c.542.35,1.1.7,1.656,1.056C8.392,48.526-6.8,96.157,17.976,128.616c12.47,16.334,30.962,22.668,38.831,43.994,4.491,12.184,5.821,25.4,10.021,37.685,6.207,18.163,18.467,31.883,37.722,33.718,17.533,1.667,33.8-7.971,42.971-23.3,5.706-9.534,7.452-19.846,8.049-30.864.938-17.222-1.556-24.89,6.659-43.44,3.452-7.8,8.586-14.745,12.2-22.47C194.46,81.167,170.453,32.658,125.054,26.375ZM47.935,35.041c12.867-4.406,28.338-11.19,39.347.429a.864.864,0,0,0,1.405-.125c.587.852,1.791.031,1.39-.951-4.5-10.971-4.607-20.557-3.919-32.056a23.464,23.464,0,0,1,5.1,0,45.212,45.212,0,0,1,5.666,1.406c-4.311,7.364-5.926,17.933-2.675,26a.92.92,0,0,0,.958.538,1.06,1.06,0,0,0,1.676,1.234c5.129-4.992,10.879-8.77,18.256-6.978,6.263,1.521,10.628,6.56,12.505,12.664-8.9-1.077-17.684-.371-26.135,3.126a.79.79,0,0,0-.146,1.4,1.194,1.194,0,0,0,1.069.909c11.311.8,18.728,11.515,14.784,22.5-6.84-6.743-19.064-6.413-22.968-15.978.151-.371.366-.7.507-1.077.492-1.369-1.656-2.315-2.273-1C87,58.755,76.428,66.558,64.143,66.412c5.841-5.4,3.994-17.834,10.945-22.512a21.13,21.13,0,0,0,2.163-1.056c1.1-.617.346-2.619-.868-2.148-9.54,3.669-17.855.716-25.854-4.072a.987.987,0,0,0-1.234-.868c-.04.01-.075.026-.11.037C48.758,35.548,48.346,35.308,47.935,35.041ZM157.893,148.655c-5.851,13.992-4.4,26.165-5.395,41.192-2.308,34.564-39.644,72.751-71.659,39.587-19.636-20.342-13.1-54.75-31.133-76.41-13.444-16.151-33.04-23.614-39.192-46.252C1.853,74.911,20.952,49.127,48.08,38.564c7.056,4.281,14.768,7.908,22.577,6.617C65.6,51.589,67.38,64.353,58.478,65.968c-1.33.24-1.34,2.577,0,2.812a32.87,32.87,0,0,0,34.47-16.856c3.568,9.236,17.99,9.189,23.465,16.673a1.43,1.43,0,0,0,2.489,0c5.284-11.321-.1-24.644-11.1-27.859a69.128,69.128,0,0,1,21.408-.345,1.493,1.493,0,0,0,1.766-1.84,21.122,21.122,0,0,0-4.607-9.277c26.305,5.985,47.02,23.787,51.426,53.01C181.94,109.747,167.5,125.689,157.893,148.655Z" transform="translate(0 0)" fill="#eae7ee"/>
      <path id="Path_17" data-name="Path 17" d="M20.005,10.79c-2.9-3.176-8.949,2.636-6.866,5.887a3.635,3.635,0,0,0,4.77.876c1.893-1.143,2.312-3.684,2.007-5.735A.743.743,0,0,0,20.005,10.79Z" transform="translate(27.241 41.404)" fill="#eae7ee"/>
      <path id="Path_18" data-name="Path 18" d="M17.563,9.594c-.648.184-.737,1.27,0,1.4,1.385.248,4.916,1,3.633,3.633-.718.686-1.429,1.372-2.147,2.064q-4.087-.829-2.547-4.1a.8.8,0,0,0-1.372-.8c-2.445,4.033,2.121,8.9,6.186,6.027C25.368,14.961,22.377,8.223,17.563,9.594Z" transform="translate(34.049 39.443)" fill="#eae7ee"/>
      <path id="Path_19" data-name="Path 19" d="M14.728,13.36c-.2.533-.838,5.17-1.232,5.341l-1.429-1.162.476-2.4a10.755,10.755,0,0,1,2.871-2.775c.6-.457.064-1.467-.61-1.042-2.14,1.353-4.84,3.2-4.63,6.084a3.8,3.8,0,0,0,4.16,3.728,1.1,1.1,0,0,0,1.023-.781A36.49,36.49,0,0,0,16.494,13.6C16.539,12.528,15.071,12.452,14.728,13.36Z" transform="translate(23.063 46.983)" fill="#eae7ee"/>
      <path id="Path_20" data-name="Path 20" d="M16.858,12.153c-.7-.26-1.118.584-.87,1.131.737,1.639,3.5,3.48,2.972,5.4.26,1.086-.33,1.416-1.759,1-1.747.794-2.5.165-2.267-1.9a12.145,12.145,0,0,1,.978-4.141c.286-.851-1.086-1.448-1.467-.616C13.3,15.5,12.089,18.39,13.562,21a4.3,4.3,0,0,0,5.367,2.14C23.991,20.917,20.72,13.6,16.858,12.153Z" transform="translate(27.859 50.622)" fill="#eae7ee"/>
      <path id="Path_21" data-name="Path 21" d="M30.868,47.531c-1.473-2.623-3.938-5.329-7.12-5.513-.737-.044-.813.889-.337,1.251,1.95,1.48,3.658,2.407,5.049,4.274a3.951,3.951,0,0,1-5.138-3.017C23.1,43.39,21.4,43.879,21.6,45a5.9,5.9,0,0,0,8.911,3.881A1.007,1.007,0,0,0,30.868,47.531Z" transform="translate(62.288 172.306)" fill="#eae7ee"/>
      <path id="Path_22" data-name="Path 22" d="M33.612,42.631c-3.6-1.962-8.326-3.157-12.334-1.848a.929.929,0,0,0,.248,1.816c3.538.006,6.548.083,9.749,1.264a5.889,5.889,0,0,1-8.32-.565c-.426-.476-1.258.152-.9.692,2.839,4.185,8.961,3.861,11.908.006A1,1,0,0,0,33.612,42.631Z" transform="translate(58.089 162.764)" fill="#eae7ee"/>
      <path id="Path_23" data-name="Path 23" d="M24.1,38.2a.7.7,0,0,0-1.181.489c.044,2.515.559,4.471-.864,6.446a4.658,4.658,0,0,1,0-4.357c.267-.54-.457-1.219-.9-.692a5.511,5.511,0,0,0,.146,7.424,1.011,1.011,0,0,0,1.4,0C25.1,45.55,27.074,40.52,24.1,38.2Z" transform="translate(55.488 150.978)" fill="#eae7ee"/>
      <path id="Path_24" data-name="Path 24" d="M32.644,38.409c-.743-.311-1.416.7-1.023,1.327,1.5,2.369,2.566,4.9.629,7.145a4.321,4.321,0,0,1-1.664-5.449c.356-.87-1.137-1.505-1.531-.648a6.169,6.169,0,0,0,2.833,8.282,1.058,1.058,0,0,0,1.219-.159C36.2,46.424,36.855,40.168,32.644,38.409Z" transform="translate(89.73 152.69)" fill="#eae7ee"/>
      <path id="Path_25" data-name="Path 25" d="M41.522,40.709c-2.845-2.026-6.891-3.874-10.441-3.1a.923.923,0,0,0,0,1.766c2.826.94,5.392,1.41,7.926,2.807-2.274,2.172-6.726,1.416-7.837-1.753a.86.86,0,0,0-1.658.457c1.569,5.506,9.527,6.3,12.461,1.543A1.292,1.292,0,0,0,41.522,40.709Z" transform="translate(93.01 147.76)" fill="#eae7ee"/>
      <path id="Path_26" data-name="Path 26" d="M33.38,39.678c-.851.3-1.016,1.67,0,1.893,1.181.26,2.769.673,3.449,1.81,1.245,2.083-.14,3.95-2.21,4.223-1.645.216-2-.159-2.166-1.594s-.216-2.871-.324-4.3a.772.772,0,0,0-1.543,0c-.057,2.68-1.372,6.637,1.683,7.913a5.885,5.885,0,0,0,5.938-1.061C41.986,45.241,38.277,37.931,33.38,39.678Z" transform="translate(96.603 158.369)" fill="#eae7ee"/>
      <path id="Path_27" data-name="Path 27" d="M37.38,18.5a.855.855,0,0,0-1.416.826c.622,2.718,1.118,4.986-.013,7.342a9.835,9.835,0,0,1-.044-9.825c.3-.54-.483-1.213-.9-.692a10.69,10.69,0,0,0-.089,13.471,1.247,1.247,0,0,0,1.931.248C39.463,26.969,40.721,21.405,37.38,18.5Z" transform="translate(106.257 66.576)" fill="#eae7ee"/>
      <path id="Path_28" data-name="Path 28" d="M34.443,15.354a1.061,1.061,0,0,0,0,2.121l.553.076a.7.7,0,0,0-.349.883c1.308,3.22,7.456,9.743,11.006,5.246C49.495,18.815,37.485,15,34.443,15.354ZM38.685,21.1a9.6,9.6,0,0,1-2.445-3.334c-.013-.025-.044-.025-.057-.051a13.565,13.565,0,0,1,2.775.654c.8.3,4.351,1.848,4.382,2.877C43.43,24.391,39.479,21.762,38.685,21.1Z" transform="translate(108.504 64.21)" fill="#eae7ee"/>
      <path id="Path_29" data-name="Path 29" d="M38.119,17.356a.947.947,0,0,0-1.061,1.378c1.245,1.772,3.372,2.877,3.874,5.113.559,2.5-2.02,4.071-3.754,1.956-1.3-1.594-.527-4.2-.146-6a.893.893,0,0,0-1.721-.476c-.915,2.871-1.689,6.1.406,8.65a4.357,4.357,0,0,0,5.932,1.073C46.413,25.632,42.234,18.976,38.119,17.356Z" transform="translate(105.988 72.289)" fill="#eae7ee"/>
      <path id="Path_30" data-name="Path 30" d="M20.333,24.73a.722.722,0,0,0-.362,1.334c2.1,1.251,5.551,4.579,3.665,7.444-.661,1-.94.908-2.045.368A8.91,8.91,0,0,1,19.3,32.231a9.4,9.4,0,0,1-2.687-6.148.546.546,0,0,0-1.092,0,10.118,10.118,0,0,0,7.786,10.479,1.015,1.015,0,0,0,1-.267C27.339,32.694,26.043,24.717,20.333,24.73Z" transform="translate(38.079 103.37)" fill="#eae7ee"/>
      <path id="Path_31" data-name="Path 31" d="M22.151,25.6c-.635-.591-1.994-.013-1.607.934.857,2.1,1.753,4.732-.768,6.129-3.62,2-6.954-3.747-2.547-5.284a.649.649,0,0,0-.343-1.251,4.643,4.643,0,0,0,.349,9.069C22.475,36.148,26.108,29.27,22.151,25.6Z" transform="translate(29.816 106.206)" fill="#eae7ee"/>
      <path id="Path_32" data-name="Path 32" d="M21.366,27.721a.887.887,0,0,0-1.613.68,3.633,3.633,0,0,0,.889,2.007c.413.5,1.931,1.277,2.058,1.7q-.191,2.382-1.543,1.34a5.139,5.139,0,0,1-1.874-1.238,9.763,9.763,0,0,1-2.426-4.147.5.5,0,0,0-.984.133c-.044,3.633,3.449,8.409,7.545,7.907a2.537,2.537,0,0,0,2.3-2.852C25.571,30.592,22.7,29.646,21.366,27.721Z" transform="translate(39.638 114.467)" fill="#eae7ee"/>
      <path id="Path_33" data-name="Path 33" d="M29.422,21.155c-.032-.641-.984-1.023-1.308-.356a4.1,4.1,0,0,0-.483,1.207c-.1.508.426,2.5.337,2.706-.534.311-1.073.622-1.607.927q-2.334-1.1-1.3-3.569A13.608,13.608,0,0,1,26.8,18.761c.464-.749-.68-1.677-1.245-.959-2.115,2.68-4.687,7.672-.343,9.679a3.625,3.625,0,0,0,3.823-.235C30.9,25.677,29.524,23.1,29.422,21.155Z" transform="translate(67.529 73.438)" fill="#eae7ee"/>
      <path id="Path_34" data-name="Path 34" d="M28.607,17.569a.9.9,0,0,0-1.08,1.4c1.194,1.461,4.941,3.214,5.024,5.036.464,1.016.057,1.346-1.219.978a4.732,4.732,0,0,1-2.178-.648,6.506,6.506,0,0,1-3.442-4.008c-.324-.959-1.823-.565-1.531.419,1.086,3.646,5.773,7.888,9.844,5.71C38.725,23.94,30.684,18.624,28.607,17.569Z" transform="translate(72.183 73.117)" fill="#eae7ee"/>
      <path id="Path_35" data-name="Path 35" d="M32.1,26.595c-.883.127-.635,1.5.2,1.512,4.2.083,5.29,6.4.756,6.631-3.538.178-4.223-4.579-1.747-6.453.578-.438.076-1.4-.584-1-5,2.979-2.324,10.956,3.665,9.387C41.041,34.927,38.665,25.661,32.1,26.595Z" transform="translate(88.004 111.054)" fill="#eae7ee"/>
      <path id="Path_36" data-name="Path 36" d="M42.177,33.765c-3.156-3.188-7.17-6.688-11.508-8.085-1.175-.375-1.651,1.219-.781,1.855,3.3,2.42,6.707,4.357,9.793,7.043-3.074,2.28-6.834-1.715-8.809-4.084-.54-.648-1.658.21-1.175.908,2.623,3.792,8.244,8.885,12.474,3.944A1.139,1.139,0,0,0,42.177,33.765Z" transform="translate(92.818 107.118)" fill="#eae7ee"/>
      <path id="Path_37" data-name="Path 37" d="M37.051,8.741c-.349-.565-1.4-.381-1.334.362.165,1.874,1.3,3.785,1.321,5.589.032,2.8-2.794,2.877-3-.426-.089-1.423.8-3.017,1.385-4.236.622-1.3-1.3-2.445-1.943-1.137-1.721,3.455-3.29,9.965,2.471,10.422C42.234,19.811,38.76,11.523,37.051,8.741Z" transform="translate(103.402 34.785)" fill="#eae7ee"/>
      <path id="Path_38" data-name="Path 38" d="M36.624,8.526c-.743.108-.807,1.238-.2,1.569a15.935,15.935,0,0,0,2.82.984c1.562.527,6.167,4.058,1.442,5.214-3.411.832-4.566-4.579-5.055-6.815-.311-1.423-2.458-.813-2.172.6.559,2.763,1.3,6.04,3.855,7.678a5.469,5.469,0,0,0,6.459-.191C48.628,13.188,40.9,7.9,36.624,8.526Z" transform="translate(108.727 35.482)" fill="#eae7ee"/>
      <path id="Path_39" data-name="Path 39" d="M38.62,32.906a.949.949,0,0,0-1.81,0c-.508,1.245-.356,2.4-.718,3.7q-.5,3.3-4.37.965a5.449,5.449,0,0,1,.622-2.655c.978-2.083,2.369-3.665,2.744-6a.594.594,0,0,0-1.143-.318c-1.023,3.137-8.593,10.575-2.083,13.109C36.784,43.627,40.119,36.819,38.62,32.906Z" transform="translate(92.574 117.557)" fill="#eae7ee"/>
      <path id="Path_40" data-name="Path 40" d="M34.4,28.14c-.953-.292-1.823,1.061-1.01,1.734,2.02,1.683,6.631,1.626,7.761,4.077.546,1.188-.3,2.369-1.708,2.617-.591.1-1.867-.737-2.42-1.029a15.93,15.93,0,0,1-4.478-3.728c-.591-.68-1.823.248-1.264.972,2.02,2.617,9.3,9.45,12.245,4.414C46.749,31.7,37.667,29.144,34.4,28.14Z" transform="translate(99.485 117.566)" fill="#eae7ee"/>
      <path id="Path_41" data-name="Path 41" d="M16.221,21.861a.753.753,0,0,0-1.277.527c.381,3.709.972,6.491-.476,9.774a7.087,7.087,0,0,1-1.289-8.174.806.806,0,0,0-1.391-.813,8.876,8.876,0,0,0,2.483,11.94A1.159,1.159,0,0,0,15.84,34.7C18.107,31.216,19.282,25.252,16.221,21.861Z" transform="translate(24.645 90.337)" fill="#eae7ee"/>
    </g>
  </g>
</svg>
