<svg xmlns="http://www.w3.org/2000/svg" width="30.526" height="30.526" viewBox="0 0 30.526 30.526">
  <path id="Path_10453" data-name="Path 10453" d="M36.672,47.033A4.573,4.573,0,0,0,39.733,48.2h3.061a4.574,4.574,0,0,0,3.061-1.169Zm0,0A4.574,4.574,0,0,1,33.612,48.2Zm-1.44-8.013v-.09H30.551a1.62,1.62,0,0,0-1.62,1.62v3.061a1.62,1.62,0,0,0,1.62,1.62h3.061a1.62,1.62,0,0,0,1.62-1.62Zm-4.666,9.092h-.09v15.43H33.7V55.854a2.971,2.971,0,0,1,2.971-2.971h3.061A2.971,2.971,0,0,1,42.7,55.854v7.688h9.382V48.112H48.915a4.483,4.483,0,0,1-3-1.146l-.06-.054-.06.054a4.484,4.484,0,0,1-3,1.146H39.733a4.483,4.483,0,0,1-3-1.146l-.06-.054-.06.054a4.484,4.484,0,0,1-3,1.146H30.566ZM27.5,46.925a4.491,4.491,0,0,1-1.452-3.313h0V40.551a4.5,4.5,0,0,1,4.5-4.5H51.975a4.5,4.5,0,0,1,4.5,4.5v3.061A4.488,4.488,0,0,1,55,46.95l-.03.027V63.452A2.971,2.971,0,0,1,52,66.423H40.3v0l-.017,0a2.981,2.981,0,0,1-.554.052H36.672a2.981,2.981,0,0,1-.554-.052h-5.55A2.97,2.97,0,0,1,27.6,63.452V46.83Zm12.32,8.929v-.09H36.582v7.778h3.151v-.089h.09v-7.6Zm4.591-16.833v-.09h-6.3v4.681a1.62,1.62,0,0,0,1.62,1.62h3.061a1.62,1.62,0,0,0,1.62-1.62Zm2.971-.09h-.09v4.681a1.62,1.62,0,0,0,1.62,1.62h3.061a1.62,1.62,0,0,0,1.62-1.62V40.551a1.62,1.62,0,0,0-1.62-1.62Zm0,13.953h1.53a1.44,1.44,0,0,1,1.44,1.44v4.591a1.44,1.44,0,0,1-1.44,1.44h-1.53a1.44,1.44,0,0,1-1.44-1.44V54.324a1.44,1.44,0,0,1,1.44-1.44Z" transform="translate(-26 -36)" fill="#434f7b" stroke="#fff" stroke-width="0.1"/>
</svg>
